<?xml version="1.0" encoding="utf-8"?>
<!-- Svg Vector Icons : http://www.onlinewebfonts.com/icon -->
<!DOCTYPE svg PUBLIC "-//W3C//DTD SVG 1.1//EN" "http://www.w3.org/Graphics/SVG/1.1/DTD/svg11.dtd">
<svg version="1.1" xmlns="http://www.w3.org/2000/svg" xmlns:xlink="http://www.w3.org/1999/xlink" x="0px" y="0px" viewBox="0 0 256 256" enable-background="new 0 0 256 256" xml:space="preserve">
<metadata> Svg Vector Icons : http://www.onlinewebfonts.com/icon </metadata>
<g><g><path fill="#ffffff"  d="M12.8,79.9L12.8,79.9l111.5,64.5c1.1,0.6,2.4,1,3.7,1c1.3,0,2.6-0.4,3.8-1l110.6-63.9c3.5-2,4.7-6.5,2.7-10c-0.7-1.1-1.6-2.1-2.7-2.7L132,3.8c-1.1-0.6-2.4-1-3.7-1c-1.5,0-2.8,0.4-4.1,1.2L13.7,67.8c-3.5,2-4.7,6.5-2.7,10C11.5,78.6,12.1,79.3,12.8,79.9z M128.3,18.6L224,74.1l-96.1,55.5L32,74.2L128.3,18.6z"/><path fill="#3d8eff"  d="M242.3,121.6l-20.8-12l-14.7,8.5L224,128l-96.1,55.5L32,128.1l17.2-9.9l-14.7-8.5l-20.8,12c-3.5,2-4.7,6.5-2.7,10c0.5,0.8,1.1,1.5,1.8,2.1l-0.1,0.1l111.5,64.4c1.1,0.6,2.4,1,3.7,1c1.3,0,2.6-0.4,3.8-1l110.7-63.9c3.5-2,4.7-6.5,2.7-10C244.4,123.2,243.4,122.2,242.3,121.6z"/><path fill="#ffffff"  d="M242.3,175.5l-20.7-12l-14.7,8.5l17.1,9.9l-96.1,55.5L32,182l17.1-9.9l-14.7-8.5l-20.8,12c-3.5,2-4.7,6.5-2.7,10c0.5,0.8,1.1,1.5,1.8,2.1l-0.1,0.1l111.5,64.4c1.1,0.6,2.4,1,3.7,1c1.3,0,2.6-0.4,3.8-1l110.7-63.9c3.5-2,4.7-6.5,2.7-10C244.4,177.1,243.4,176.1,242.3,175.5z"/></g></g>
</svg>